<svg width="390" height="182" viewBox="0 0 390 182" fill="none" xmlns="http://www.w3.org/2000/svg">
<g filter="url(#filter0_d_102_399)">
<path d="M96.7822 28.3984H79.4971V36.3818C79.4971 38.986 79.5622 40.695 79.6924 41.5088C79.8226 42.3063 80.1481 42.9004 80.6689 43.291C81.2061 43.6816 82.2152 43.877 83.6963 43.877H84.5508V45H69.6582V43.877H70.5127C71.9287 43.877 72.9053 43.6979 73.4424 43.3398C73.9958 42.9818 74.3457 42.4284 74.4922 41.6797C74.6549 40.9147 74.7363 39.1488 74.7363 36.3818V20.1465C74.7363 17.5098 74.6549 15.8089 74.4922 15.0439C74.3457 14.279 74.0202 13.75 73.5156 13.457C73.0273 13.1641 71.945 13.0176 70.2686 13.0176H69.6582V11.8945H84.5508V13.0176H83.9404C82.3291 13.0176 81.2712 13.1559 80.7666 13.4326C80.262 13.693 79.9202 14.1895 79.7412 14.9219C79.5785 15.6543 79.4971 17.3958 79.4971 20.1465V26.7139H96.7822V20.1465C96.7822 17.5098 96.709 15.8089 96.5625 15.0439C96.416 14.279 96.0905 13.75 95.5859 13.457C95.0977 13.1641 94.0153 13.0176 92.3389 13.0176H91.46V11.8945H106.523V13.0176H106.035C104.408 13.0176 103.341 13.1559 102.837 13.4326C102.332 13.693 101.991 14.1895 101.812 14.9219C101.649 15.6543 101.567 17.3958 101.567 20.1465V36.3818C101.567 38.986 101.624 40.695 101.738 41.5088C101.868 42.3063 102.202 42.9004 102.739 43.291C103.276 43.6816 104.285 43.877 105.767 43.877H106.523V45H91.46V43.877H92.6074C94.0072 43.877 94.9756 43.6979 95.5127 43.3398C96.0661 42.9818 96.416 42.4284 96.5625 41.6797C96.709 40.9147 96.7822 39.1488 96.7822 36.3818V28.3984ZM110.088 34.9658C110.088 31.9059 111.113 29.3506 113.164 27.2998C115.215 25.2327 117.738 24.1992 120.732 24.1992C123.743 24.1992 126.274 25.2327 128.325 27.2998C130.376 29.3669 131.401 31.9222 131.401 34.9658C131.401 38.335 130.36 40.988 128.276 42.9248C126.193 44.8454 123.678 45.8057 120.732 45.8057C117.786 45.8057 115.272 44.8291 113.188 42.876C111.121 40.9066 110.088 38.2699 110.088 34.9658ZM114.141 35.0879C114.141 38.6361 114.718 41.1263 115.874 42.5586C117.03 43.9746 118.649 44.6826 120.732 44.6826C122.865 44.6826 124.492 43.9746 125.615 42.5586C126.755 41.1263 127.324 38.6361 127.324 35.0879C127.324 31.5723 126.763 29.0658 125.64 27.5684C124.517 26.071 122.881 25.3223 120.732 25.3223C118.6 25.3223 116.965 26.071 115.825 27.5684C114.702 29.0495 114.141 31.556 114.141 35.0879ZM140.239 24.1992H140.483C140.955 25.2897 141.191 26.6895 141.191 28.3984C142.282 26.9987 143.454 25.9489 144.707 25.249C145.977 24.5492 147.336 24.1992 148.784 24.1992C150.428 24.1992 151.763 24.5736 152.788 25.3223C153.813 26.071 154.53 27.194 154.937 28.6914C156.174 27.194 157.443 26.071 158.745 25.3223C160.047 24.5736 161.374 24.1992 162.725 24.1992C164.271 24.1992 165.581 24.5573 166.655 25.2734C167.729 25.9896 168.381 26.8034 168.608 27.7148C168.836 28.6263 168.95 30.0993 168.95 32.1338V38.1396C168.95 40.4671 168.991 41.8831 169.072 42.3877C169.17 42.8923 169.43 43.2666 169.854 43.5107C170.293 43.7549 171.099 43.877 172.271 43.877V45H162.285V43.877C163.343 43.877 164.084 43.763 164.507 43.5352C164.946 43.291 165.215 42.9329 165.312 42.4609C165.41 41.9727 165.459 40.5322 165.459 38.1396V31.4746C165.459 30.1237 165.378 29.1064 165.215 28.4229C165.068 27.7393 164.67 27.1533 164.019 26.665C163.368 26.1768 162.521 25.9326 161.479 25.9326C160.422 25.9326 159.355 26.2907 158.281 27.0068C157.223 27.723 156.157 28.8053 155.083 30.2539V38.1396C155.083 40.2718 155.107 41.6146 155.156 42.168C155.221 42.7051 155.449 43.1283 155.84 43.4375C156.247 43.7305 156.963 43.877 157.988 43.877V45H148.32V43.877C149.411 43.877 150.168 43.763 150.591 43.5352C151.03 43.3073 151.299 42.9574 151.396 42.4854C151.51 42.0133 151.567 40.5648 151.567 38.1396V32.5977C151.567 30.8398 151.494 29.5703 151.348 28.7891C151.217 27.9915 150.802 27.3161 150.103 26.7627C149.403 26.193 148.532 25.9082 147.49 25.9082C146.481 25.9082 145.448 26.2337 144.39 26.8848C143.348 27.5358 142.282 28.5124 141.191 29.8145V38.1396C141.191 40.3369 141.224 41.7041 141.289 42.2412C141.354 42.7783 141.598 43.1852 142.021 43.4619C142.445 43.7386 143.201 43.877 144.292 43.877V45H134.502V43.877C135.576 43.877 136.325 43.763 136.748 43.5352C137.188 43.291 137.456 42.9329 137.554 42.4609C137.651 41.9889 137.7 40.5485 137.7 38.1396V32.1582C137.7 29.8796 137.66 28.488 137.578 27.9834C137.513 27.4626 137.261 27.0719 136.821 26.8115C136.398 26.5511 135.625 26.4209 134.502 26.4209V25.2979C136.813 25.07 138.726 24.7038 140.239 24.1992ZM193.34 31.7676H179.399C179.334 32.7279 179.302 33.444 179.302 33.916C179.302 37.4316 179.847 40.0765 180.938 41.8506C182.044 43.6084 183.688 44.4873 185.869 44.4873C188.831 44.4873 190.931 43.1608 192.168 40.5078H193.34C192.819 42.168 191.785 43.4701 190.239 44.4141C188.693 45.3418 187.008 45.8057 185.186 45.8057C183.493 45.8057 181.89 45.3825 180.376 44.5361C178.879 43.6735 177.65 42.4609 176.689 40.8984C175.729 39.3359 175.249 37.4398 175.249 35.21C175.249 32.0524 176.177 29.432 178.032 27.3486C179.888 25.249 182.207 24.1992 184.99 24.1992C187.611 24.1992 189.637 24.9967 191.069 26.5918C192.502 28.1868 193.258 29.9121 193.34 31.7676ZM189.067 30.791C189.116 30.4167 189.141 30.083 189.141 29.79C189.141 28.3577 188.717 27.251 187.871 26.4697C187.041 25.6722 186.016 25.2734 184.795 25.2734C181.833 25.2734 180.067 27.1126 179.497 30.791H189.067ZM212.554 45.8057H211.602V19.0479C211.602 17.0947 211.545 15.8333 211.431 15.2637C211.333 14.694 211.064 14.2708 210.625 13.9941C210.202 13.7174 209.453 13.5791 208.379 13.5791V12.4561C209.339 12.4561 210.495 12.3421 211.846 12.1143C213.197 11.8864 214.116 11.6585 214.604 11.4307H215.117V27.251C216.257 26.2256 217.412 25.4606 218.584 24.9561C219.756 24.4515 220.944 24.1992 222.148 24.1992C225.029 24.1992 227.389 25.2002 229.229 27.2021C231.068 29.2041 231.987 31.7594 231.987 34.8682C231.987 37.9932 231.043 40.5973 229.155 42.6807C227.267 44.764 224.818 45.8057 221.807 45.8057C220.326 45.8057 219.023 45.4964 217.9 44.8779C216.794 44.2594 215.866 43.3398 215.117 42.1191C214.059 43.1771 213.205 44.4059 212.554 45.8057ZM215.117 28.6914V36.5283C215.117 38.5465 215.247 40.0033 215.508 40.8984C215.785 41.7773 216.436 42.6237 217.461 43.4375C218.486 44.2513 219.683 44.6582 221.05 44.6582C223.149 44.6582 224.818 43.7956 226.055 42.0703C227.308 40.3451 227.935 37.863 227.935 34.624C227.935 31.6455 227.349 29.3831 226.177 27.8369C225.021 26.2744 223.475 25.4932 221.538 25.4932C220.431 25.4932 219.341 25.7617 218.267 26.2988C217.209 26.8197 216.159 27.6172 215.117 28.6914ZM255.84 41.3379H256.743C256.597 44.1211 255.229 45.5127 252.642 45.5127C251.535 45.5127 250.656 45.2197 250.005 44.6338C249.37 44.0479 248.955 43.1771 248.76 42.0215C247.132 43.1771 245.643 44.0479 244.292 44.6338C242.957 45.2197 241.761 45.5127 240.703 45.5127C239.352 45.5127 238.188 45.1221 237.212 44.3408C236.235 43.5596 235.747 42.526 235.747 41.2402C235.747 39.5638 236.561 38.099 238.188 36.8457C239.832 35.5924 242.095 34.3717 244.976 33.1836L248.76 31.6455V30.6689C248.76 29.2855 248.67 28.2845 248.491 27.666C248.312 27.0475 247.848 26.4941 247.1 26.0059C246.351 25.5176 245.366 25.2734 244.146 25.2734C241.704 25.2734 240.345 26.0872 240.068 27.7148C239.808 29.375 239.124 30.2051 238.018 30.2051C237.025 30.2051 236.528 29.7331 236.528 28.7891C236.528 27.8613 237.188 26.8685 238.506 25.8105C239.824 24.7363 241.875 24.1992 244.658 24.1992C246.725 24.1992 248.328 24.5247 249.468 25.1758C250.607 25.8268 251.356 26.5674 251.714 27.3975C252.088 28.2275 252.275 29.4971 252.275 31.2061V39.2871C252.275 41.1751 252.373 42.3877 252.568 42.9248C252.764 43.4619 253.187 43.7305 253.838 43.7305C254.912 43.7305 255.579 42.9329 255.84 41.3379ZM248.76 32.793L246.099 33.8672C241.899 35.5762 239.8 37.7246 239.8 40.3125C239.8 41.3379 240.068 42.168 240.605 42.8027C241.143 43.4212 241.842 43.7305 242.705 43.7305C243.47 43.7305 244.357 43.4782 245.366 42.9736C246.375 42.4691 247.507 41.7122 248.76 40.7031V32.793ZM259.282 45.6348V39.0674H260.234C261.341 42.8597 263.319 44.7559 266.167 44.7559C267.404 44.7559 268.324 44.3815 268.926 43.6328C269.544 42.8841 269.854 42.0622 269.854 41.167C269.854 40.1253 269.528 39.2708 268.877 38.6035C268.21 37.9362 266.916 37.1305 264.995 36.1865C262.977 35.1937 261.528 34.2171 260.649 33.2568C259.771 32.3128 259.331 31.1491 259.331 29.7656C259.331 28.4473 259.803 27.194 260.747 26.0059C261.691 24.8014 263.018 24.1992 264.727 24.1992C266.468 24.1992 267.909 24.9072 269.048 26.3232C269.292 26.0791 269.609 25.485 270 24.541H270.903V30.7178H270C269.674 29.2367 269.04 27.9671 268.096 26.9092C267.168 25.835 266.069 25.2979 264.8 25.2979C263.823 25.2979 263.034 25.599 262.432 26.2012C261.829 26.8034 261.528 27.5033 261.528 28.3008C261.528 29.1797 261.862 29.9365 262.529 30.5713C263.18 31.2223 264.425 31.9629 266.265 32.793C269.032 34.0462 270.724 35.2669 271.343 36.4551C271.961 37.6595 272.271 38.8151 272.271 39.9219C272.271 41.6634 271.693 43.0794 270.537 44.1699C269.398 45.2604 267.957 45.8057 266.216 45.8057C264.377 45.8057 262.741 45.0488 261.309 43.5352C260.869 44.0234 260.511 44.7233 260.234 45.6348H259.282ZM293.926 31.7676H279.985C279.92 32.7279 279.888 33.444 279.888 33.916C279.888 37.4316 280.433 40.0765 281.523 41.8506C282.63 43.6084 284.274 44.4873 286.455 44.4873C289.417 44.4873 291.517 43.1608 292.754 40.5078H293.926C293.405 42.168 292.371 43.4701 290.825 44.4141C289.279 45.3418 287.594 45.8057 285.771 45.8057C284.079 45.8057 282.476 45.3825 280.962 44.5361C279.465 43.6735 278.236 42.4609 277.275 40.8984C276.315 39.3359 275.835 37.4398 275.835 35.21C275.835 32.0524 276.763 29.432 278.618 27.3486C280.474 25.249 282.793 24.1992 285.576 24.1992C288.197 24.1992 290.223 24.9967 291.655 26.5918C293.088 28.1868 293.844 29.9121 293.926 31.7676ZM289.653 30.791C289.702 30.4167 289.727 30.083 289.727 29.79C289.727 28.3577 289.303 27.251 288.457 26.4697C287.627 25.6722 286.602 25.2734 285.381 25.2734C282.419 25.2734 280.653 27.1126 280.083 30.791H289.653ZM314.605 27.1289V19.3164C314.605 17.1842 314.572 15.8415 314.507 15.2881C314.458 14.7347 314.23 14.3115 313.823 14.0186C313.416 13.7256 312.692 13.5791 311.65 13.5791H311.138V12.4561C313.107 12.4072 315.264 12.0654 317.607 11.4307H318.12V38.3105C318.12 40.638 318.161 42.054 318.242 42.5586C318.324 43.0632 318.576 43.4375 318.999 43.6816C319.438 43.9258 320.244 44.0479 321.416 44.0479V45.1709C319.056 45.2197 316.956 45.4313 315.117 45.8057C314.922 45.0407 314.824 43.8363 314.824 42.1924C313.62 43.3968 312.375 44.3001 311.089 44.9023C309.819 45.5046 308.501 45.8057 307.134 45.8057C304.546 45.8057 302.308 44.764 300.42 42.6807C298.548 40.5973 297.612 38.0745 297.612 35.1123C297.612 31.8571 298.573 29.2285 300.493 27.2266C302.414 25.2083 304.701 24.1992 307.354 24.1992C308.704 24.1992 309.982 24.4434 311.187 24.9316C312.391 25.4199 313.53 26.1523 314.605 27.1289ZM314.605 28.5449C313.53 27.6172 312.448 26.9255 311.357 26.4697C310.283 25.9977 309.201 25.7617 308.11 25.7617C306.271 25.7617 304.733 26.4697 303.496 27.8857C302.275 29.3018 301.665 31.613 301.665 34.8193C301.665 38.0745 302.292 40.4753 303.545 42.0215C304.814 43.5677 306.377 44.3408 308.232 44.3408C309.469 44.3408 310.617 44.0479 311.675 43.4619C312.733 42.876 313.709 41.9971 314.605 40.8252V28.5449Z" fill="#FAF5E8"/>
<path d="M51.4453 105.476H41.9727L38.9453 110.114C37.9525 111.644 37.3503 112.621 37.1387 113.044C36.9271 113.467 36.8213 113.907 36.8213 114.362C36.8213 115.957 37.985 116.787 40.3125 116.853L41.1182 116.877L40.7764 118H29.1797L29.5215 116.877C31.1165 116.747 32.443 116.226 33.501 115.314C34.5589 114.387 36.0726 112.442 38.042 109.479L54.8877 84.3086H56.5967L55.4492 111.14L55.3027 114.118C55.3027 115.192 55.612 115.909 56.2305 116.267C56.8652 116.625 57.8906 116.828 59.3066 116.877L58.9648 118H45.9766L46.3184 116.877C48.0436 116.844 49.2074 116.6 49.8096 116.145C50.4281 115.673 50.7943 115.119 50.9082 114.484C51.0221 113.833 51.1198 112.613 51.2012 110.822L51.4453 105.476ZM51.4941 104.353L52.1289 90.2168L42.7051 104.353H51.4941ZM74.1504 111.066H75.127C74.3294 113.394 73.2145 115.249 71.7822 116.633C70.3499 118 68.8607 118.684 67.3145 118.684C66.0124 118.684 64.9544 118.195 64.1406 117.219C63.3431 116.226 62.9443 114.834 62.9443 113.044C62.9443 110.944 63.4814 108.658 64.5557 106.184C65.6462 103.693 67.168 101.594 69.1211 99.8848C71.0905 98.1758 72.8239 97.3213 74.3213 97.3213C75.1839 97.3213 75.9163 97.598 76.5186 98.1514C77.1208 98.7048 77.4219 99.3721 77.4219 100.153C77.4219 101.309 76.958 101.887 76.0303 101.887C75.0863 101.887 74.5898 101.244 74.541 99.958C74.5085 98.9977 74.1423 98.5176 73.4424 98.5176C72.5309 98.5176 71.473 99.3639 70.2686 101.057C69.0641 102.733 68.0306 104.979 67.168 107.795C66.3053 110.594 65.874 112.727 65.874 114.191C65.874 115.119 66.11 115.86 66.582 116.413C67.054 116.966 67.6237 117.243 68.291 117.243C69.2513 117.243 70.293 116.69 71.416 115.583C72.5553 114.46 73.4668 112.954 74.1504 111.066ZM94.6826 97.6875H97.6123L93.2666 111.994C92.6318 114.061 92.3145 115.314 92.3145 115.754C92.3145 116.079 92.3877 116.332 92.5342 116.511C92.6807 116.674 92.9004 116.755 93.1934 116.755C94.3164 116.755 95.6104 115.469 97.0752 112.897H98.1006C97.4658 114.362 96.5544 115.697 95.3662 116.901C94.1943 118.09 93.112 118.684 92.1191 118.684C91.3542 118.684 90.7682 118.399 90.3613 117.829C89.9544 117.259 89.751 116.56 89.751 115.729C89.751 115.062 89.9137 114.191 90.2393 113.117C89.5068 114.37 88.4408 115.616 87.041 116.853C85.6576 118.073 84.3555 118.684 83.1348 118.684C81.9954 118.684 81.0107 118.203 80.1807 117.243C79.3669 116.267 78.96 114.956 78.96 113.312C78.96 111.099 79.5947 108.731 80.8643 106.208C82.1338 103.669 83.7858 101.553 85.8203 99.8604C87.8711 98.1676 89.6208 97.3213 91.0693 97.3213C91.9157 97.3213 92.583 97.5247 93.0713 97.9316C93.5758 98.3385 93.9095 98.9489 94.0723 99.7627L94.6826 97.6875ZM81.9141 114.045C81.9141 115.119 82.0768 115.933 82.4023 116.486C82.7279 117.023 83.2161 117.292 83.8672 117.292C84.9414 117.292 86.2272 116.503 87.7246 114.924C89.2383 113.345 90.5485 110.928 91.6553 107.673C92.762 104.418 93.3154 102.204 93.3154 101.032C93.3154 100.349 93.1364 99.7708 92.7783 99.2988C92.4365 98.8105 91.9401 98.5664 91.2891 98.5664C89.3034 98.5664 87.2445 100.528 85.1123 104.45C82.9801 108.373 81.9141 111.571 81.9141 114.045ZM117.29 113.557H118.486C117.754 114.891 116.826 116.079 115.703 117.121C114.596 118.163 113.579 118.684 112.651 118.684C111.789 118.684 111.138 118.423 110.698 117.902C110.259 117.382 110.039 116.608 110.039 115.583C110.039 115.111 110.08 114.68 110.161 114.289C107.85 117.219 105.71 118.684 103.74 118.684C102.633 118.684 101.689 118.236 100.908 117.341C100.127 116.446 99.7363 115.152 99.7363 113.459C99.7363 111.099 100.387 108.568 101.689 105.866C102.992 103.148 104.603 101.049 106.523 99.5674C108.444 98.07 110.112 97.3213 111.528 97.3213C112.261 97.3213 112.879 97.4922 113.384 97.834C113.905 98.1758 114.32 98.6885 114.629 99.3721L117.607 89.5332C117.965 88.3613 118.145 87.6533 118.145 87.4092C118.145 87.0186 118.031 86.7419 117.803 86.5791C117.591 86.4163 117.054 86.335 116.191 86.335H115.508L115.825 85.3096C118.185 85.3096 120.065 85.0166 121.465 84.4307H122.075L114.263 110.139C113.302 113.312 112.822 115.184 112.822 115.754C112.822 116.161 112.896 116.47 113.042 116.682C113.205 116.877 113.433 116.975 113.726 116.975C114.214 116.975 114.751 116.69 115.337 116.12C115.939 115.55 116.59 114.696 117.29 113.557ZM102.544 114.582C102.544 115.493 102.699 116.185 103.008 116.657C103.333 117.113 103.805 117.341 104.424 117.341C105.514 117.341 106.776 116.584 108.208 115.07C109.64 113.54 110.959 111.034 112.163 107.551C113.368 104.051 113.97 101.838 113.97 100.91C113.97 100.308 113.766 99.7627 113.359 99.2744C112.952 98.7861 112.415 98.542 111.748 98.542C110.69 98.542 109.575 99.1686 108.403 100.422C107.248 101.659 105.978 103.815 104.595 106.892C103.228 109.951 102.544 112.515 102.544 114.582ZM131.719 111.774H132.891C130.824 116.381 128.171 118.684 124.932 118.684C123.597 118.684 122.507 118.22 121.66 117.292C120.83 116.348 120.415 115.078 120.415 113.483C120.415 111.465 120.952 109.187 122.026 106.647C123.117 104.108 124.655 101.919 126.641 100.08C128.643 98.2409 130.384 97.3213 131.865 97.3213C132.777 97.3213 133.468 97.6143 133.94 98.2002C134.412 98.7699 134.648 99.486 134.648 100.349C134.648 102.106 133.77 103.799 132.012 105.427C130.254 107.038 127.617 108.592 124.102 110.09C123.646 111.506 123.418 112.849 123.418 114.118C123.418 115.16 123.621 115.941 124.028 116.462C124.435 116.983 125.037 117.243 125.835 117.243C128.065 117.243 130.026 115.42 131.719 111.774ZM124.468 108.845C126.567 107.901 128.455 106.599 130.132 104.938C131.808 103.278 132.646 101.773 132.646 100.422C132.646 99.8034 132.516 99.3477 132.256 99.0547C132.012 98.7454 131.637 98.5908 131.133 98.5908C130.156 98.5908 129.001 99.543 127.666 101.447C126.348 103.335 125.282 105.801 124.468 108.845ZM164.482 113.386H165.532C164.832 114.899 163.921 116.161 162.798 117.17C161.691 118.179 160.609 118.684 159.551 118.684C158.851 118.684 158.224 118.431 157.671 117.927C157.134 117.422 156.865 116.706 156.865 115.778C156.865 114.948 157.264 113.369 158.062 111.042L160.356 104.401C161.04 102.416 161.382 101.171 161.382 100.666C161.382 100.129 161.268 99.7301 161.04 99.4697C160.828 99.193 160.503 99.0547 160.063 99.0547C158.664 99.0547 157.012 100.218 155.107 102.546C153.219 104.873 151.25 109.431 149.199 116.218L148.54 118.342H145.635L149.614 105.256C150.298 102.977 150.64 101.439 150.64 100.642C150.64 100.153 150.542 99.7871 150.347 99.543C150.168 99.2988 149.883 99.1768 149.492 99.1768C148.353 99.1768 146.815 100.381 144.878 102.79C142.941 105.183 141.012 109.569 139.092 115.949L138.359 118.342H135.43L139.897 103.693C140.5 101.691 140.801 100.511 140.801 100.153C140.801 99.8929 140.752 99.6976 140.654 99.5674C140.573 99.4372 140.435 99.3721 140.239 99.3721C139.816 99.3721 139.246 99.7139 138.53 100.397C137.83 101.081 137.131 102.058 136.431 103.327H135.332C136.113 101.683 137.074 100.332 138.213 99.2744C139.352 98.2002 140.361 97.6631 141.24 97.6631C141.875 97.6631 142.371 97.8747 142.729 98.2979C143.104 98.721 143.291 99.2907 143.291 100.007C143.291 101.195 142.795 103.205 141.802 106.037C142.892 103.742 144.251 101.765 145.879 100.104C147.507 98.4443 148.979 97.6143 150.298 97.6143C151.242 97.6143 151.942 97.891 152.397 98.4443C152.869 98.9814 153.105 99.7952 153.105 100.886C153.105 102.22 152.772 103.832 152.104 105.72C153.488 102.888 154.953 100.829 156.499 99.543C158.045 98.2572 159.445 97.6143 160.698 97.6143C161.642 97.6143 162.432 97.9316 163.066 98.5664C163.701 99.1849 164.019 100.031 164.019 101.105C164.019 101.773 163.962 102.326 163.848 102.766C163.75 103.189 163.359 104.426 162.676 106.477L160.771 111.97C159.99 114.2 159.6 115.575 159.6 116.096C159.6 116.454 159.673 116.73 159.819 116.926C159.982 117.105 160.21 117.194 160.503 117.194C161.073 117.194 161.691 116.877 162.358 116.242C163.026 115.607 163.734 114.655 164.482 113.386ZM174.956 86.5547C174.956 85.9688 175.16 85.4723 175.566 85.0654C175.99 84.6423 176.494 84.4307 177.08 84.4307C177.666 84.4307 178.162 84.6423 178.569 85.0654C178.993 85.4723 179.204 85.9688 179.204 86.5547C179.204 87.1406 178.993 87.6452 178.569 88.0684C178.162 88.4915 177.666 88.7031 177.08 88.7031C176.478 88.7031 175.973 88.4915 175.566 88.0684C175.16 87.6289 174.956 87.1243 174.956 86.5547ZM176.763 112.653H177.935C177.17 114.232 176.169 115.632 174.932 116.853C173.711 118.073 172.531 118.684 171.392 118.684C170.627 118.684 169.951 118.415 169.365 117.878C168.796 117.325 168.511 116.519 168.511 115.461C168.511 114.598 168.966 112.946 169.878 110.505L172.686 103.059C173.337 101.317 173.662 100.259 173.662 99.8848C173.662 99.5592 173.581 99.3151 173.418 99.1523C173.271 98.9896 173.044 98.9082 172.734 98.9082C172.1 98.9082 171.343 99.4046 170.464 100.397C169.601 101.374 168.991 102.261 168.633 103.059H167.461C168.356 101.285 169.373 99.8848 170.513 98.8594C171.668 97.834 172.743 97.3213 173.735 97.3213C174.5 97.3213 175.127 97.5817 175.615 98.1025C176.104 98.6234 176.348 99.307 176.348 100.153C176.348 101.016 175.916 102.595 175.054 104.89L172.71 111.237C171.847 113.532 171.416 114.973 171.416 115.559C171.416 116.031 171.506 116.389 171.685 116.633C171.88 116.861 172.157 116.975 172.515 116.975C173.719 116.975 175.135 115.534 176.763 112.653ZM195.317 97.6875H198.247L193.901 111.994C193.267 114.061 192.949 115.314 192.949 115.754C192.949 116.079 193.022 116.332 193.169 116.511C193.315 116.674 193.535 116.755 193.828 116.755C194.951 116.755 196.245 115.469 197.71 112.897H198.735C198.101 114.362 197.189 115.697 196.001 116.901C194.829 118.09 193.747 118.684 192.754 118.684C191.989 118.684 191.403 118.399 190.996 117.829C190.589 117.259 190.386 116.56 190.386 115.729C190.386 115.062 190.549 114.191 190.874 113.117C190.142 114.37 189.076 115.616 187.676 116.853C186.292 118.073 184.99 118.684 183.77 118.684C182.63 118.684 181.646 118.203 180.815 117.243C180.002 116.267 179.595 114.956 179.595 113.312C179.595 111.099 180.229 108.731 181.499 106.208C182.769 103.669 184.421 101.553 186.455 99.8604C188.506 98.1676 190.256 97.3213 191.704 97.3213C192.55 97.3213 193.218 97.5247 193.706 97.9316C194.211 98.3385 194.544 98.9489 194.707 99.7627L195.317 97.6875ZM182.549 114.045C182.549 115.119 182.712 115.933 183.037 116.486C183.363 117.023 183.851 117.292 184.502 117.292C185.576 117.292 186.862 116.503 188.359 114.924C189.873 113.345 191.183 110.928 192.29 107.673C193.397 104.418 193.95 102.204 193.95 101.032C193.95 100.349 193.771 99.7708 193.413 99.2988C193.071 98.8105 192.575 98.5664 191.924 98.5664C189.938 98.5664 187.879 100.528 185.747 104.45C183.615 108.373 182.549 111.571 182.549 114.045ZM214.58 117.658V107.014H215.801C217.184 113.947 220.464 117.414 225.64 117.414C227.967 117.414 229.766 116.755 231.035 115.437C232.321 114.102 232.964 112.613 232.964 110.969C232.964 109.309 232.402 107.917 231.279 106.794C230.156 105.687 228.105 104.499 225.127 103.229C222.474 102.09 220.472 101.097 219.121 100.251C217.77 99.3883 216.712 98.2734 215.947 96.9062C215.199 95.5391 214.824 94.0824 214.824 92.5361C214.824 90.1761 215.638 88.2148 217.266 86.6523C218.91 85.0736 220.985 84.2842 223.491 84.2842C224.891 84.2842 226.209 84.512 227.446 84.9678C228.683 85.4235 229.953 86.3675 231.255 87.7998C232.004 86.9046 232.427 85.9362 232.524 84.8945H233.599V93.5615H232.524C231.906 91.0387 230.807 89.0531 229.229 87.6045C227.666 86.1559 225.851 85.4316 223.784 85.4316C221.815 85.4316 220.366 85.9688 219.438 87.043C218.527 88.1009 218.071 89.2646 218.071 90.5342C218.071 92.0641 218.649 93.3581 219.805 94.416C220.944 95.4902 223.003 96.6947 225.981 98.0293C228.83 99.2988 230.897 100.324 232.183 101.105C233.485 101.87 234.526 102.937 235.308 104.304C236.089 105.671 236.479 107.25 236.479 109.04C236.479 111.872 235.535 114.175 233.647 115.949C231.759 117.723 229.237 118.61 226.079 118.61C222.45 118.61 219.422 117.219 216.997 114.436C216.46 115.201 216.061 116.275 215.801 117.658H214.58ZM240.654 107.966C240.654 104.906 241.68 102.351 243.73 100.3C245.781 98.2327 248.304 97.1992 251.299 97.1992C254.31 97.1992 256.841 98.2327 258.892 100.3C260.942 102.367 261.968 104.922 261.968 107.966C261.968 111.335 260.926 113.988 258.843 115.925C256.759 117.845 254.245 118.806 251.299 118.806C248.353 118.806 245.838 117.829 243.755 115.876C241.688 113.907 240.654 111.27 240.654 107.966ZM244.707 108.088C244.707 111.636 245.285 114.126 246.44 115.559C247.596 116.975 249.215 117.683 251.299 117.683C253.431 117.683 255.059 116.975 256.182 115.559C257.321 114.126 257.891 111.636 257.891 108.088C257.891 104.572 257.329 102.066 256.206 100.568C255.083 99.071 253.447 98.3223 251.299 98.3223C249.167 98.3223 247.531 99.071 246.392 100.568C245.269 102.049 244.707 104.556 244.707 108.088ZM282.915 113.117H283.989C282.882 116.91 280.116 118.806 275.688 118.806C272.84 118.806 270.439 117.837 268.486 115.9C266.549 113.964 265.581 111.4 265.581 108.21C265.581 104.938 266.631 102.285 268.73 100.251C270.83 98.2165 273.312 97.1992 276.177 97.1992C277.902 97.1992 279.489 97.5817 280.938 98.3467C282.386 99.0954 283.11 100.015 283.11 101.105C283.11 101.512 282.972 101.895 282.695 102.253C282.435 102.611 282.052 102.79 281.548 102.79C280.474 102.79 279.814 102.163 279.57 100.91C279.375 99.9661 279.074 99.307 278.667 98.9326C278.244 98.5583 277.422 98.3711 276.201 98.3711C274.02 98.3711 272.376 99.1279 271.27 100.642C270.179 102.155 269.634 104.434 269.634 107.478C269.634 110.619 270.22 113.076 271.392 114.851C272.58 116.625 274.37 117.512 276.763 117.512C279.985 117.512 282.036 116.047 282.915 113.117ZM288.53 86.9941C288.53 86.2943 288.774 85.6921 289.263 85.1875C289.767 84.6829 290.369 84.4307 291.069 84.4307C291.769 84.4307 292.363 84.6829 292.852 85.1875C293.34 85.6921 293.584 86.2943 293.584 86.9941C293.584 87.7103 293.34 88.3206 292.852 88.8252C292.363 89.3298 291.769 89.582 291.069 89.582C290.369 89.582 289.767 89.3298 289.263 88.8252C288.774 88.3206 288.53 87.7103 288.53 86.9941ZM293.242 97.1992V111.14C293.242 113.272 293.275 114.615 293.34 115.168C293.405 115.721 293.641 116.145 294.048 116.438C294.455 116.73 295.179 116.877 296.221 116.877H296.733V118H285.967V116.877H286.797C287.952 116.877 288.701 116.714 289.043 116.389C289.401 116.047 289.604 115.648 289.653 115.192C289.718 114.72 289.751 113.369 289.751 111.14V105.085C289.751 102.741 289.637 101.309 289.409 100.788C289.198 100.267 288.905 99.9417 288.53 99.8115C288.172 99.6813 287.537 99.6162 286.626 99.6162H285.967V98.4932C288.864 98.2002 291.11 97.7689 292.705 97.1992H293.242ZM317.656 104.768H303.716C303.651 105.728 303.618 106.444 303.618 106.916C303.618 110.432 304.163 113.076 305.254 114.851C306.361 116.608 308.005 117.487 310.186 117.487C313.148 117.487 315.247 116.161 316.484 113.508H317.656C317.135 115.168 316.102 116.47 314.556 117.414C313.009 118.342 311.325 118.806 309.502 118.806C307.809 118.806 306.206 118.382 304.692 117.536C303.195 116.674 301.966 115.461 301.006 113.898C300.046 112.336 299.565 110.44 299.565 108.21C299.565 105.052 300.493 102.432 302.349 100.349C304.204 98.249 306.523 97.1992 309.307 97.1992C311.927 97.1992 313.953 97.9967 315.386 99.5918C316.818 101.187 317.575 102.912 317.656 104.768ZM313.384 103.791C313.433 103.417 313.457 103.083 313.457 102.79C313.457 101.358 313.034 100.251 312.188 99.4697C311.357 98.6722 310.332 98.2734 309.111 98.2734C306.149 98.2734 304.383 100.113 303.813 103.791H313.384ZM333.281 99.1279H327.251V111.213C327.251 113.068 327.332 114.322 327.495 114.973C327.658 115.607 328 116.12 328.521 116.511C329.058 116.901 329.627 117.097 330.229 117.097C331.401 117.097 332.419 116.429 333.281 115.095L334.062 115.559C333.558 116.633 332.809 117.447 331.816 118C330.84 118.537 329.847 118.806 328.838 118.806C327.666 118.806 326.632 118.464 325.737 117.78C324.858 117.08 324.305 116.267 324.077 115.339C323.866 114.411 323.76 112.784 323.76 110.456V99.1279H320.854V98.0049C322.189 97.9723 323.385 97.4108 324.443 96.3203C325.501 95.2298 326.177 93.6999 326.47 91.7305H327.251V98.0049H333.281V99.1279ZM347.124 114.216L351.763 103.107C352.43 101.48 352.764 100.576 352.764 100.397C352.764 99.5837 351.86 99.1605 350.054 99.1279V98.0049H357.085V99.1279C355.994 99.1768 355.197 99.4697 354.692 100.007C354.188 100.528 353.561 101.691 352.812 103.498L343.901 125.007C343.055 127.058 342.306 128.449 341.655 129.182C341.004 129.93 340.288 130.305 339.507 130.305C338.449 130.305 337.92 129.825 337.92 128.864C337.92 127.757 338.766 126.822 340.459 126.057C341.452 125.617 342.111 125.243 342.437 124.934C342.778 124.624 343.112 124.063 343.438 123.249L345.342 118.488L337.822 102.375C337.155 100.959 336.602 100.064 336.162 99.6895C335.723 99.3151 334.974 99.1279 333.916 99.1279V98.0049H343.096V99.1279C341.484 99.1768 340.679 99.5104 340.679 100.129C340.679 100.373 340.996 101.171 341.631 102.521L347.124 114.216Z" fill="#FAF5E8"/>
<path d="M92.6475 173.132C91.8235 173.132 91.1035 172.948 90.4875 172.58C89.8715 172.204 89.3915 171.684 89.0475 171.02C88.7035 170.348 88.5315 169.564 88.5315 168.668C88.5315 167.772 88.7075 166.988 89.0595 166.316C89.4115 165.644 89.8995 165.12 90.5235 164.744C91.1555 164.368 91.8835 164.18 92.7075 164.18C93.3635 164.18 93.9555 164.304 94.4835 164.552C95.0115 164.792 95.4515 165.132 95.8035 165.572C96.1555 166.012 96.3835 166.528 96.4875 167.12H95.2275C95.0675 166.552 94.7595 166.108 94.3035 165.788C93.8475 165.468 93.3035 165.308 92.6715 165.308C92.0875 165.308 91.5755 165.448 91.1355 165.728C90.7035 166 90.3675 166.388 90.1275 166.892C89.8875 167.388 89.7675 167.976 89.7675 168.656C89.7675 169.328 89.8875 169.916 90.1275 170.42C90.3675 170.924 90.7075 171.316 91.1475 171.596C91.5875 171.868 92.0955 172.004 92.6715 172.004C93.3115 172.004 93.8635 171.848 94.3275 171.536C94.7995 171.216 95.1155 170.788 95.2755 170.252H96.5235C96.4035 170.828 96.1595 171.332 95.7915 171.764C95.4315 172.196 94.9795 172.532 94.4355 172.772C93.8995 173.012 93.3035 173.132 92.6475 173.132ZM100.341 173H99.1654V164.324H102.441C103.369 164.324 104.093 164.556 104.613 165.02C105.141 165.476 105.405 166.112 105.405 166.928C105.405 167.528 105.257 168.036 104.961 168.452C104.673 168.868 104.261 169.164 103.725 169.34L105.489 173H104.181L102.561 169.568H100.341V173ZM100.341 165.38V168.524H102.453C102.997 168.524 103.417 168.384 103.713 168.104C104.017 167.824 104.169 167.436 104.169 166.94C104.169 166.436 104.013 166.052 103.701 165.788C103.397 165.516 102.977 165.38 102.441 165.38H100.341ZM113.509 173H108.217V164.324H113.509V165.404H108.853L109.393 164.936V168.116H113.101V169.16H109.393V172.4L108.853 171.908H113.509V173ZM116.773 173H115.549L118.717 164.324H120.025L123.205 173H121.969L121.189 170.84H117.541L116.773 173ZM119.221 166.196L117.901 169.82H120.841L119.509 166.196C119.485 166.108 119.457 166.02 119.425 165.932C119.393 165.836 119.373 165.756 119.365 165.692C119.349 165.756 119.329 165.836 119.305 165.932C119.281 166.02 119.253 166.108 119.221 166.196ZM127.725 164.864V173H126.549V164.864H127.725ZM123.933 165.404V164.324H130.329V165.404H123.933ZM138.004 173H132.712V164.324H138.004V165.404H133.348L133.888 164.936V168.116H137.596V169.16H133.888V172.4L133.348 171.908H138.004V173ZM147.441 169.472L144.501 164.324H145.821L147.753 167.792C147.809 167.896 147.857 167.992 147.897 168.08C147.945 168.168 147.993 168.264 148.041 168.368C148.081 168.296 148.109 168.236 148.125 168.188C148.149 168.132 148.173 168.076 148.197 168.02C148.229 167.964 148.273 167.888 148.329 167.792L150.249 164.324H151.533L148.617 169.472V173H147.441V169.472ZM161.081 168.656C161.081 169.536 160.901 170.316 160.541 170.996C160.189 171.668 159.697 172.196 159.065 172.58C158.441 172.956 157.717 173.144 156.893 173.144C156.085 173.144 155.365 172.956 154.733 172.58C154.109 172.196 153.621 171.668 153.269 170.996C152.917 170.324 152.741 169.544 152.741 168.656C152.741 167.776 152.917 167 153.269 166.328C153.629 165.656 154.121 165.128 154.745 164.744C155.369 164.36 156.089 164.168 156.905 164.168C157.729 164.168 158.453 164.36 159.077 164.744C159.701 165.128 160.189 165.656 160.541 166.328C160.901 167 161.081 167.776 161.081 168.656ZM159.845 168.656C159.845 167.984 159.721 167.396 159.473 166.892C159.233 166.388 158.893 166 158.453 165.728C158.013 165.448 157.497 165.308 156.905 165.308C156.321 165.308 155.809 165.448 155.369 165.728C154.929 166 154.585 166.388 154.337 166.892C154.097 167.396 153.977 167.984 153.977 168.656C153.977 169.328 154.097 169.916 154.337 170.42C154.585 170.924 154.929 171.316 155.369 171.596C155.809 171.876 156.321 172.016 156.905 172.016C157.497 172.016 158.013 171.876 158.453 171.596C158.893 171.308 159.233 170.912 159.473 170.408C159.721 169.904 159.845 169.32 159.845 168.656ZM163.725 169.916V164.324H164.901V169.844C164.901 170.54 165.085 171.076 165.453 171.452C165.829 171.82 166.361 172.004 167.049 172.004C167.729 172.004 168.253 171.816 168.621 171.44C168.989 171.064 169.173 170.532 169.173 169.844V164.324H170.361V169.916C170.361 170.58 170.225 171.152 169.953 171.632C169.689 172.112 169.309 172.484 168.813 172.748C168.317 173.012 167.729 173.144 167.049 173.144C166.369 173.144 165.777 173.016 165.273 172.76C164.777 172.496 164.393 172.124 164.121 171.644C163.857 171.156 163.725 170.58 163.725 169.916ZM174.692 173H173.516V164.324H176.792C177.72 164.324 178.444 164.556 178.964 165.02C179.492 165.476 179.756 166.112 179.756 166.928C179.756 167.528 179.608 168.036 179.312 168.452C179.024 168.868 178.612 169.164 178.076 169.34L179.84 173H178.532L176.912 169.568H174.692V173ZM174.692 165.38V168.524H176.804C177.348 168.524 177.768 168.384 178.064 168.104C178.368 167.824 178.52 167.436 178.52 166.94C178.52 166.436 178.364 166.052 178.052 165.788C177.748 165.516 177.328 165.38 176.792 165.38H174.692ZM194.873 168.656C194.873 169.536 194.693 170.316 194.333 170.996C193.981 171.668 193.489 172.196 192.857 172.58C192.233 172.956 191.509 173.144 190.685 173.144C189.877 173.144 189.157 172.956 188.525 172.58C187.901 172.196 187.413 171.668 187.061 170.996C186.709 170.324 186.533 169.544 186.533 168.656C186.533 167.776 186.709 167 187.061 166.328C187.421 165.656 187.913 165.128 188.537 164.744C189.161 164.36 189.881 164.168 190.697 164.168C191.521 164.168 192.245 164.36 192.869 164.744C193.493 165.128 193.981 165.656 194.333 166.328C194.693 167 194.873 167.776 194.873 168.656ZM193.637 168.656C193.637 167.984 193.513 167.396 193.265 166.892C193.025 166.388 192.685 166 192.245 165.728C191.805 165.448 191.289 165.308 190.697 165.308C190.113 165.308 189.601 165.448 189.161 165.728C188.721 166 188.377 166.388 188.129 166.892C187.889 167.396 187.769 167.984 187.769 168.656C187.769 169.328 187.889 169.916 188.129 170.42C188.377 170.924 188.721 171.316 189.161 171.596C189.601 171.876 190.113 172.016 190.697 172.016C191.289 172.016 191.805 171.876 192.245 171.596C192.685 171.308 193.025 170.912 193.265 170.408C193.513 169.904 193.637 169.32 193.637 168.656ZM199.036 173L196.456 164.324H197.68L199.264 169.628C199.328 169.852 199.388 170.088 199.444 170.336C199.5 170.584 199.56 170.872 199.624 171.2C199.696 170.848 199.764 170.556 199.828 170.324C199.9 170.092 199.968 169.86 200.032 169.628L201.676 164.324H202.948L204.58 169.628C204.652 169.86 204.72 170.1 204.784 170.348C204.848 170.596 204.912 170.88 204.976 171.2C205.056 170.832 205.124 170.528 205.18 170.288C205.244 170.048 205.304 169.832 205.36 169.64L206.956 164.324H208.156L205.54 173H204.412L202.312 166.136L200.188 173H199.036ZM211.719 173H210.543V164.324H211.719L216.483 171.524H216.159V164.324H217.335V173H216.159L211.395 165.8H211.719V173ZM226.213 164.324V173H225.037V164.324H226.213ZM228.445 169.172H225.889V168.152H228.349C228.837 168.152 229.213 168.028 229.477 167.78C229.741 167.532 229.873 167.18 229.873 166.724C229.873 166.292 229.733 165.96 229.453 165.728C229.181 165.488 228.789 165.368 228.277 165.368H225.685V164.324H228.349C229.197 164.324 229.861 164.528 230.341 164.936C230.829 165.344 231.073 165.904 231.073 166.616C231.073 167.152 230.941 167.6 230.677 167.96C230.421 168.312 230.041 168.568 229.537 168.728V168.572C230.097 168.708 230.517 168.956 230.797 169.316C231.085 169.668 231.229 170.124 231.229 170.684C231.229 171.164 231.117 171.58 230.893 171.932C230.677 172.276 230.361 172.54 229.945 172.724C229.529 172.908 229.037 173 228.469 173H225.685V171.956H228.445C228.949 171.956 229.337 171.832 229.609 171.584C229.881 171.336 230.017 170.988 230.017 170.54C230.017 170.108 229.877 169.772 229.597 169.532C229.325 169.292 228.941 169.172 228.445 169.172ZM241.725 168.656C241.725 169.536 241.545 170.316 241.185 170.996C240.833 171.668 240.341 172.196 239.709 172.58C239.085 172.956 238.361 173.144 237.537 173.144C236.729 173.144 236.009 172.956 235.377 172.58C234.753 172.196 234.265 171.668 233.913 170.996C233.561 170.324 233.385 169.544 233.385 168.656C233.385 167.776 233.561 167 233.913 166.328C234.273 165.656 234.765 165.128 235.389 164.744C236.013 164.36 236.733 164.168 237.549 164.168C238.373 164.168 239.097 164.36 239.721 164.744C240.345 165.128 240.833 165.656 241.185 166.328C241.545 167 241.725 167.776 241.725 168.656ZM240.489 168.656C240.489 167.984 240.365 167.396 240.117 166.892C239.877 166.388 239.537 166 239.097 165.728C238.657 165.448 238.141 165.308 237.549 165.308C236.965 165.308 236.453 165.448 236.013 165.728C235.573 166 235.229 166.388 234.981 166.892C234.741 167.396 234.621 167.984 234.621 168.656C234.621 169.328 234.741 169.916 234.981 170.42C235.229 170.924 235.573 171.316 236.013 171.596C236.453 171.876 236.965 172.016 237.549 172.016C238.141 172.016 238.657 171.876 239.097 171.596C239.537 171.308 239.877 170.912 240.117 170.408C240.365 169.904 240.489 169.32 240.489 168.656ZM252.253 168.656C252.253 169.536 252.073 170.316 251.713 170.996C251.361 171.668 250.869 172.196 250.237 172.58C249.613 172.956 248.889 173.144 248.065 173.144C247.257 173.144 246.537 172.956 245.905 172.58C245.281 172.196 244.793 171.668 244.441 170.996C244.089 170.324 243.913 169.544 243.913 168.656C243.913 167.776 244.089 167 244.441 166.328C244.801 165.656 245.293 165.128 245.917 164.744C246.541 164.36 247.261 164.168 248.077 164.168C248.901 164.168 249.625 164.36 250.249 164.744C250.873 165.128 251.361 165.656 251.713 166.328C252.073 167 252.253 167.776 252.253 168.656ZM251.017 168.656C251.017 167.984 250.893 167.396 250.645 166.892C250.405 166.388 250.065 166 249.625 165.728C249.185 165.448 248.669 165.308 248.077 165.308C247.493 165.308 246.981 165.448 246.541 165.728C246.101 166 245.757 166.388 245.509 166.892C245.269 167.396 245.149 167.984 245.149 168.656C245.149 169.328 245.269 169.916 245.509 170.42C245.757 170.924 246.101 171.316 246.541 171.596C246.981 171.876 247.493 172.016 248.077 172.016C248.669 172.016 249.185 171.876 249.625 171.596C250.065 171.308 250.405 170.912 250.645 170.408C250.893 169.904 251.017 169.32 251.017 168.656ZM261.401 164.324L255.893 171.308V169.544L259.997 164.324H261.401ZM256.133 164.324V173H254.957V164.324H256.133ZM257.657 168.908L258.425 167.9L261.449 173H260.081L257.657 168.908ZM271.949 173.132C271.125 173.132 270.405 172.948 269.789 172.58C269.173 172.204 268.693 171.684 268.349 171.02C268.005 170.348 267.833 169.564 267.833 168.668C267.833 167.772 268.009 166.988 268.361 166.316C268.713 165.644 269.201 165.12 269.825 164.744C270.457 164.368 271.185 164.18 272.009 164.18C272.665 164.18 273.257 164.304 273.785 164.552C274.313 164.792 274.753 165.132 275.105 165.572C275.457 166.012 275.685 166.528 275.789 167.12H274.529C274.369 166.552 274.061 166.108 273.605 165.788C273.149 165.468 272.605 165.308 271.973 165.308C271.389 165.308 270.877 165.448 270.437 165.728C270.005 166 269.669 166.388 269.429 166.892C269.189 167.388 269.069 167.976 269.069 168.656C269.069 169.328 269.189 169.916 269.429 170.42C269.669 170.924 270.009 171.316 270.449 171.596C270.889 171.868 271.397 172.004 271.973 172.004C272.613 172.004 273.165 171.848 273.629 171.536C274.101 171.216 274.417 170.788 274.577 170.252H275.825C275.705 170.828 275.461 171.332 275.093 171.764C274.733 172.196 274.281 172.532 273.737 172.772C273.201 173.012 272.605 173.132 271.949 173.132ZM279.643 164.324V173H278.467V164.324H279.643ZM278.671 173V171.908H283.459V173H278.671ZM285.513 169.916V164.324H286.689V169.844C286.689 170.54 286.873 171.076 287.241 171.452C287.617 171.82 288.149 172.004 288.837 172.004C289.517 172.004 290.041 171.816 290.409 171.44C290.777 171.064 290.961 170.532 290.961 169.844V164.324H292.149V169.916C292.149 170.58 292.013 171.152 291.741 171.632C291.477 172.112 291.097 172.484 290.601 172.748C290.105 173.012 289.517 173.144 288.837 173.144C288.157 173.144 287.565 173.016 287.061 172.76C286.565 172.496 286.181 172.124 285.909 171.644C285.645 171.156 285.513 170.58 285.513 169.916ZM296.48 164.324V173H295.304V164.324H296.48ZM298.712 169.172H296.156V168.152H298.616C299.104 168.152 299.48 168.028 299.744 167.78C300.008 167.532 300.14 167.18 300.14 166.724C300.14 166.292 300 165.96 299.72 165.728C299.448 165.488 299.056 165.368 298.544 165.368H295.952V164.324H298.616C299.464 164.324 300.128 164.528 300.608 164.936C301.096 165.344 301.34 165.904 301.34 166.616C301.34 167.152 301.208 167.6 300.944 167.96C300.688 168.312 300.308 168.568 299.804 168.728V168.572C300.364 168.708 300.784 168.956 301.064 169.316C301.352 169.668 301.496 170.124 301.496 170.684C301.496 171.164 301.384 171.58 301.16 171.932C300.944 172.276 300.628 172.54 300.212 172.724C299.796 172.908 299.304 173 298.736 173H295.952V171.956H298.712C299.216 171.956 299.604 171.832 299.876 171.584C300.148 171.336 300.284 170.988 300.284 170.54C300.284 170.108 300.144 169.772 299.864 169.532C299.592 169.292 299.208 169.172 298.712 169.172Z" fill="#C4BAA2"/>
</g>
<defs>
<filter id="filter0_d_102_399" x="-4" y="0" width="398" height="184" filterUnits="userSpaceOnUse" color-interpolation-filters="sRGB">
<feFlood flood-opacity="0" result="BackgroundImageFix"/>
<feColorMatrix in="SourceAlpha" type="matrix" values="0 0 0 0 0 0 0 0 0 0 0 0 0 0 0 0 0 0 127 0" result="hardAlpha"/>
<feOffset dy="4"/>
<feGaussianBlur stdDeviation="2"/>
<feComposite in2="hardAlpha" operator="out"/>
<feColorMatrix type="matrix" values="0 0 0 0 0 0 0 0 0 0 0 0 0 0 0 0 0 0 0.25 0"/>
<feBlend mode="normal" in2="BackgroundImageFix" result="effect1_dropShadow_102_399"/>
<feBlend mode="normal" in="SourceGraphic" in2="effect1_dropShadow_102_399" result="shape"/>
</filter>
</defs>
</svg>
